<svg width="310" height="35" viewBox="0 0 310 35" fill="none" xmlns="http://www.w3.org/2000/svg">
<circle cx="11.3157" cy="29.158" r="5" fill="#989898"/>
<circle cx="92.6842" cy="29.158" r="5" fill="#989898"/>
<rect x="0.526316" y="0.526316" width="102.947" height="29.9474" rx="4.73684" fill="#D3D3D3"/>
<rect x="0.526316" y="0.526316" width="102.947" height="29.9474" rx="4.73684" stroke="#B9B9B9" stroke-width="1.05263"/>
<rect x="5.24896" y="4.21045" width="15.5" height="13.95" rx="2.63158" fill="#989898"/>
<rect x="24.749" y="4.21045" width="15.5" height="13.95" rx="2.63158" fill="#989898"/>
<rect x="44.249" y="4.21045" width="15.5" height="13.95" rx="2.63158" fill="#989898"/>
<rect x="63.749" y="4.21045" width="15.5" height="13.95" rx="2.63158" fill="#989898"/>
<rect x="83.249" y="4.21045" width="15.5" height="13.95" rx="2.63158" fill="#989898"/>
<circle cx="114.316" cy="29.158" r="5" fill="#989898"/>
<circle cx="195.684" cy="29.158" r="5" fill="#989898"/>
<rect x="103.526" y="0.526316" width="102.947" height="29.9474" rx="4.73684" fill="#D3D3D3"/>
<rect x="103.526" y="0.526316" width="102.947" height="29.9474" rx="4.73684" stroke="#B9B9B9" stroke-width="1.05263"/>
<rect x="108.249" y="4.21045" width="15.5" height="13.95" rx="2.63158" fill="#989898"/>
<rect x="127.749" y="4.21045" width="15.5" height="13.95" rx="2.63158" fill="#989898"/>
<rect x="147.249" y="4.21045" width="15.5" height="13.95" rx="2.63158" fill="#989898"/>
<rect x="166.749" y="4.21045" width="15.5" height="13.95" rx="2.63158" fill="#989898"/>
<rect x="186.249" y="4.21045" width="15.5" height="13.95" rx="2.63158" fill="#989898"/>
<circle cx="217.316" cy="29.158" r="5" fill="#989898"/>
<circle cx="298.684" cy="29.158" r="5" fill="#989898"/>
<rect x="206.526" y="0.526316" width="102.947" height="29.9474" rx="4.73684" fill="#D3D3D3"/>
<rect x="206.526" y="0.526316" width="102.947" height="29.9474" rx="4.73684" stroke="#B9B9B9" stroke-width="1.05263"/>
<rect x="211.249" y="4.21045" width="15.5" height="13.95" rx="2.63158" fill="#989898"/>
<rect x="230.749" y="4.21045" width="15.5" height="13.95" rx="2.63158" fill="#989898"/>
<rect x="250.249" y="4.21045" width="15.5" height="13.95" rx="2.63158" fill="#989898"/>
<rect x="269.749" y="4.21045" width="15.5" height="13.95" rx="2.63158" fill="#989898"/>
<rect x="289.249" y="4.21045" width="15.5" height="13.95" rx="2.63158" fill="#989898"/>
</svg>
