<svg width="310" height="35" viewBox="0 0 310 35" fill="none" xmlns="http://www.w3.org/2000/svg">
<circle cx="11.3157" cy="29.1577" r="5" fill="#989898"/>
<circle cx="92.6842" cy="29.1577" r="5" fill="#989898"/>
<rect width="104" height="31" rx="5" fill="#DFE5E9"/>
<path d="M5 1.5H44.5V22.5H1.5V5C1.5 3.067 3.067 1.5 5 1.5Z" fill="url(#paint0_linear_276_109)" fill-opacity="0.74" stroke="#DFE5E9"/>
<rect x="0.526316" y="0.526316" width="102.947" height="29.9474" rx="4.73684" stroke="#B1C2CC" stroke-width="1.05263"/>
<rect x="5.74895" y="4.71045" width="14.5" height="12.95" rx="2.13158" fill="#678595" stroke="#DFE5E9"/>
<rect x="25.2489" y="4.71045" width="14.5" height="12.95" rx="2.13158" fill="#678595" stroke="#DFE5E9"/>
<rect x="44.2489" y="4.21045" width="15.5" height="13.95" rx="2.63158" fill="#678595"/>
<rect x="63.7489" y="4.21045" width="15.5" height="13.95" rx="2.63158" fill="#678595"/>
<rect x="83.2489" y="4.21045" width="15.5" height="13.95" rx="2.63158" fill="#678595"/>
<circle cx="114.316" cy="29.1577" r="5" fill="#989898"/>
<circle cx="195.684" cy="29.1577" r="5" fill="#989898"/>
<rect x="103" width="104" height="31" rx="5" fill="#DFE5E9"/>
<rect x="103.526" y="0.526316" width="102.947" height="29.9474" rx="4.73684" stroke="#B1C2CC" stroke-width="1.05263"/>
<rect x="108.749" y="4.71045" width="14.5" height="12.95" rx="2.13158" fill="#678595" stroke="#DFE5E9"/>
<rect x="128.249" y="4.71045" width="14.5" height="12.95" rx="2.13158" fill="#678595" stroke="#DFE5E9"/>
<rect x="147.249" y="4.21045" width="15.5" height="13.95" rx="2.63158" fill="#678595"/>
<rect x="166.749" y="4.21045" width="15.5" height="13.95" rx="2.63158" fill="#678595"/>
<rect x="186.249" y="4.21045" width="15.5" height="13.95" rx="2.63158" fill="#678595"/>
<circle cx="5" cy="5" r="5" transform="matrix(-1 0 0 1 303.684 24.1577)" fill="#989898"/>
<circle cx="5" cy="5" r="5" transform="matrix(-1 0 0 1 222.316 24.1577)" fill="#989898"/>
<rect width="104" height="31" rx="5" transform="matrix(-1 0 0 1 310 0)" fill="#DFE5E9"/>
<path d="M305 1.5H265.5V22.5H308.5V5C308.5 3.067 306.933 1.5 305 1.5Z" fill="url(#paint1_linear_276_109)" fill-opacity="0.74" stroke="#DFE5E9"/>
<rect x="-0.526316" y="0.526316" width="102.947" height="29.9474" rx="4.73684" transform="matrix(-1 0 0 1 308.947 0)" stroke="#B1C2CC" stroke-width="1.05263"/>
<rect x="-0.5" y="0.5" width="14.5" height="12.95" rx="2.13158" transform="matrix(-1 0 0 1 303.751 4.21045)" fill="#678595" stroke="#DFE5E9"/>
<rect x="-0.5" y="0.5" width="14.5" height="12.95" rx="2.13158" transform="matrix(-1 0 0 1 284.251 4.21045)" fill="#678595" stroke="#DFE5E9"/>
<rect width="15.5" height="13.95" rx="2.63158" transform="matrix(-1 0 0 1 265.751 4.21045)" fill="#678595"/>
<rect width="15.5" height="13.95" rx="2.63158" transform="matrix(-1 0 0 1 246.251 4.21045)" fill="#678595"/>
<rect width="15.5" height="13.95" rx="2.63158" transform="matrix(-1 0 0 1 226.751 4.21045)" fill="#678595"/>
<defs>
<linearGradient id="paint0_linear_276_109" x1="2.57143" y1="9.8" x2="43.9524" y2="9.8" gradientUnits="userSpaceOnUse">
<stop stop-color="#0049F4"/>
<stop offset="0.442308" stop-color="#1AB987"/>
<stop offset="0.774038" stop-color="#5ADC56"/>
<stop offset="1" stop-color="#DFE5E9"/>
</linearGradient>
<linearGradient id="paint1_linear_276_109" x1="307.429" y1="9.8" x2="266.048" y2="9.8" gradientUnits="userSpaceOnUse">
<stop stop-color="#0049F4"/>
<stop offset="0.442308" stop-color="#1AB987"/>
<stop offset="0.774038" stop-color="#5ADC56"/>
<stop offset="1" stop-color="#DFE5E9"/>
</linearGradient>
</defs>
</svg>
