<svg width="126" height="35" viewBox="0 0 126 35" fill="none" xmlns="http://www.w3.org/2000/svg">
<circle cx="11.3157" cy="29.1577" r="5" fill="#A3A3A3"/>
<circle cx="92.6842" cy="29.1577" r="5" fill="#A3A3A3"/>
<rect x="0.526316" y="0.526316" width="102.947" height="29.9474" rx="4.73684" fill="#F4F4F4"/>
<rect x="0.526316" y="0.526316" width="102.947" height="29.9474" rx="4.73684" stroke="#C9C9A6" stroke-width="1.05263"/>
<rect x="5.24896" y="4.21045" width="15.5" height="13.95" rx="2.63158" fill="#C9C9A6"/>
<rect x="24.749" y="4.21045" width="15.5" height="13.95" rx="2.63158" fill="#C9C9A6"/>
<rect x="44.249" y="4.21045" width="15.5" height="13.95" rx="2.63158" fill="#C9C9A6"/>
<rect x="63.749" y="4.21045" width="15.5" height="13.95" rx="2.63158" fill="#C9C9A6"/>
<rect x="83.249" y="4.21045" width="15.5" height="13.95" rx="2.63158" fill="#C9C9A6"/>
<path d="M40.7651 19.7096C26.6768 19.308 15.1138 23.7249 9 27.5396C11.7025 26.4688 16.7087 24.528 22.6896 24.7288C26.0123 22.219 36.2994 19.7096 40.7651 19.7096Z" fill="#F1C34E"/>
<path d="M34.7842 24.0264C25.3211 25.3917 19.4111 27.8746 17.639 28.9455H27.7401C33.3222 24.9299 41.5383 21.8312 54.1888 21.7174C70.1378 21.574 85.2008 25.6661 94.3272 28.5439C77.5807 22.2194 64.6886 19.8101 49.8029 19.8101C37.974 19.8101 29.3793 22.9556 25.2148 24.5283C26.0654 24.448 31.9488 24.1602 34.7842 24.0264Z" fill="#00355F"/>
<circle cx="114.316" cy="29.1577" r="5" fill="#A3A3A3"/>
<rect x="103.526" y="0.526316" width="20.7653" height="29.9474" rx="4.73684" fill="#F4F4F4"/>
<rect x="103.526" y="0.526316" width="20.7653" height="29.9474" rx="4.73684" stroke="#C9C9A6" stroke-width="1.05263"/>
<rect x="106.158" y="4.21045" width="15.5" height="13.95" rx="2.63158" fill="#C9C9A6"/>
<path d="M66 21.9698L71 17.6841L76 21.9698H73.7273L76 27.1127H71.6818V29.6841H70.0909V27.1127H66L68.2727 21.9698H66Z" fill="#6CBB4F"/>
<path d="M81 18.1127L88.5 11.6841L96 18.1127H92.5909L96 25.8269H89.5227V29.6841H87.1364V25.8269H81L84.4091 18.1127H81Z" fill="#6CBB4F"/>
<path d="M92 22.6127L96.5 18.6841L101 22.6127H98.9545L101 27.3269H97.1136V29.6841H95.6818V27.3269H92L94.0455 22.6127H92Z" fill="#6CBB4F"/>
<path d="M5 22.6127L9.5 18.6841L14 22.6127H11.9545L14 27.3269H10.1136V29.6841H8.68182V27.3269H5L7.04545 22.6127H5Z" fill="#6CBB4F"/>
<path d="M112 21.9698L117.5 17.6841L123 21.9698H120.5L123 27.1127H118.25V29.6841H116.5V27.1127H112L114.5 21.9698H112Z" fill="#6CBB4F"/>
</svg>
