<svg width="248" height="35" viewBox="0 0 248 35" fill="none" xmlns="http://www.w3.org/2000/svg">
<circle cx="11.3157" cy="29.1577" r="5" fill="#A3A3A3"/>
<circle cx="92.6842" cy="29.1577" r="5" fill="#A3A3A3"/>
<rect x="0.526316" y="0.526316" width="102.947" height="29.9474" rx="4.73684" fill="#F4F4F4"/>
<rect x="0.526316" y="0.526316" width="102.947" height="29.9474" rx="4.73684" stroke="#C9C9A6" stroke-width="1.05263"/>
<rect x="5.24896" y="4.21045" width="15.5" height="13.95" rx="2.63158" fill="#C9C9A6"/>
<rect x="24.749" y="4.21045" width="15.5" height="13.95" rx="2.63158" fill="#C9C9A6"/>
<rect x="44.249" y="4.21045" width="15.5" height="13.95" rx="2.63158" fill="#C9C9A6"/>
<rect x="63.749" y="4.21045" width="15.5" height="13.95" rx="2.63158" fill="#C9C9A6"/>
<rect x="83.249" y="4.21045" width="15.5" height="13.95" rx="2.63158" fill="#C9C9A6"/>
<circle cx="114.316" cy="29.1577" r="5" fill="#A3A3A3"/>
<circle cx="195.684" cy="29.1577" r="5" fill="#A3A3A3"/>
<rect x="103.526" y="0.526316" width="102.947" height="29.9474" rx="4.73684" fill="#F4F4F4"/>
<rect x="103.526" y="0.526316" width="102.947" height="29.9474" rx="4.73684" stroke="#C9C9A6" stroke-width="1.05263"/>
<rect x="108.249" y="4.21045" width="15.5" height="13.95" rx="2.63158" fill="#C9C9A6"/>
<rect x="127.749" y="4.21045" width="15.5" height="13.95" rx="2.63158" fill="#C9C9A6"/>
<rect x="147.249" y="4.21045" width="15.5" height="13.95" rx="2.63158" fill="#C9C9A6"/>
<rect x="166.749" y="4.21045" width="15.5" height="13.95" rx="2.63158" fill="#C9C9A6"/>
<rect x="186.249" y="4.21045" width="15.5" height="13.95" rx="2.63158" fill="#C9C9A6"/>
<circle cx="217.316" cy="29.1577" r="5" fill="#A3A3A3"/>
<circle cx="236.002" cy="29.1577" r="5" fill="#A3A3A3"/>
<rect x="206.526" y="0.526316" width="40.2653" height="29.9474" rx="4.73684" fill="#F4F4F4"/>
<rect x="206.526" y="0.526316" width="40.2653" height="29.9474" rx="4.73684" stroke="#C9C9A6" stroke-width="1.05263"/>
<rect x="209.158" y="4.21045" width="15.5" height="13.95" rx="2.63158" fill="#C9C9A6"/>
<rect x="228.658" y="4.21045" width="15.5" height="13.95" rx="2.63158" fill="#C9C9A6"/>
<path d="M140.765 19.8678C126.677 19.4662 115.114 23.8831 109 27.6978C111.702 26.627 116.709 24.6862 122.69 24.887C126.012 22.3773 136.299 19.8678 140.765 19.8678Z" fill="#F1C34E"/>
<path d="M134.784 24.1846C125.321 25.5499 119.411 28.0328 117.639 29.1037H127.74C133.322 25.0881 141.538 21.9894 154.189 21.8757C170.138 21.7322 185.201 25.8243 194.327 28.7021C177.581 22.3776 164.689 19.9683 149.803 19.9683C137.974 19.9683 129.379 23.1138 125.215 24.6865C126.065 24.6062 131.949 24.3185 134.784 24.1846Z" fill="#00355F"/>
<path d="M40.7651 19.8678C26.6768 19.4662 15.1138 23.8831 9 27.6978C11.7025 26.627 16.7087 24.6862 22.6896 24.887C26.0123 22.3773 36.2994 19.8678 40.7651 19.8678Z" fill="#F1C34E"/>
<path d="M34.7842 24.1846C25.3211 25.5499 19.4111 28.0328 17.639 29.1037H27.7401C33.3222 25.0881 41.5383 21.9894 54.1888 21.8757C70.1378 21.7322 85.2008 25.8243 94.3272 28.7021C77.5807 22.3776 64.6886 19.9683 49.8029 19.9683C37.974 19.9683 29.3793 23.1138 25.2148 24.6865C26.0654 24.6062 31.9488 24.3185 34.7842 24.1846Z" fill="#00355F"/>
</svg>
