<svg width="14" height="17" viewBox="0 0 14 17" fill="none" xmlns="http://www.w3.org/2000/svg">
<path d="M10.6875 0H2.375C1.74511 0 1.14102 0.250222 0.695621 0.695621C0.250222 1.14102 0 1.74511 0 2.375V11.875C0 12.5049 0.250222 13.109 0.695621 13.5544C1.14102 13.9998 1.74511 14.25 2.375 14.25H2.96875L1.9 15.675C1.85322 15.7374 1.81918 15.8084 1.79983 15.8839C1.78048 15.9594 1.77619 16.038 1.78722 16.1152C1.79824 16.1924 1.82437 16.2667 1.86409 16.3338C1.90382 16.4009 1.95637 16.4595 2.01875 16.5063C2.08113 16.553 2.15211 16.5871 2.22764 16.6064C2.30318 16.6258 2.38178 16.6301 2.45897 16.619C2.53616 16.608 2.61042 16.5819 2.67751 16.5422C2.74461 16.5024 2.80322 16.4499 2.85 16.3875L4.45312 14.25H8.60938L10.2125 16.3875C10.307 16.5135 10.4476 16.5968 10.6035 16.619C10.7594 16.6413 10.9178 16.6007 11.0438 16.5063C11.1697 16.4118 11.253 16.2711 11.2753 16.1152C11.2976 15.9593 11.257 15.801 11.1625 15.675L10.0938 14.25H10.6875C11.3174 14.25 11.9215 13.9998 12.3669 13.5544C12.8123 13.109 13.0625 12.5049 13.0625 11.875V2.375C13.0625 1.74511 12.8123 1.14102 12.3669 0.695621C11.9215 0.250222 11.3174 0 10.6875 0ZM3.26562 11.875C3.08948 11.875 2.91728 11.8228 2.77082 11.7249C2.62436 11.627 2.5102 11.4879 2.44279 11.3252C2.37539 11.1625 2.35775 10.9834 2.39211 10.8106C2.42648 10.6379 2.5113 10.4792 2.63586 10.3546C2.76041 10.2301 2.91911 10.1452 3.09187 10.1109C3.26464 10.0765 3.44371 10.0941 3.60645 10.1615C3.76919 10.229 3.90829 10.3431 4.00615 10.4896C4.10402 10.636 4.15625 10.8082 4.15625 10.9844C4.15625 11.2206 4.06242 11.4471 3.89539 11.6141C3.72837 11.7812 3.50183 11.875 3.26562 11.875ZM5.9375 7.125H1.1875V4.15625H5.9375V7.125ZM9.79688 11.875C9.62073 11.875 9.44853 11.8228 9.30207 11.7249C9.15561 11.627 9.04146 11.4879 8.97405 11.3252C8.90664 11.1625 8.889 10.9834 8.92336 10.8106C8.95773 10.6379 9.04255 10.4792 9.16711 10.3546C9.29167 10.2301 9.45036 10.1452 9.62312 10.1109C9.79589 10.0765 9.97496 10.0941 10.1377 10.1615C10.3004 10.229 10.4395 10.3431 10.5374 10.4896C10.6353 10.636 10.6875 10.8082 10.6875 10.9844C10.6875 11.2206 10.5937 11.4471 10.4266 11.6141C10.2596 11.7812 10.0331 11.875 9.79688 11.875ZM11.875 7.125H7.125V4.15625H11.875V7.125Z" fill="white"/>
</svg>
